<svg xmlns="http://www.w3.org/2000/svg" viewBox="0 0 512 512">
  <defs>
    <linearGradient id="grad" x1="0%" y1="0%" x2="100%" y2="100%">
      <stop offset="0%" stop-color="#00d4aa"/>
      <stop offset="100%" stop-color="#0099cc"/>
    </linearGradient>
  </defs>
  <rect width="512" height="512" rx="96" fill="#0f1419"/>
  <g transform="translate(56, 106)">
    <path fill="url(#grad)" d="M340 180c0-44.2-35.8-80-80-80-33.7 0-62.5 20.8-74.3 50.3C176.4 143 165 138 152 138c-30.9 0-56 25.1-56 56 0 3.1.3 6.1.8 9.1C76.5 209.7 60 230.5 60 255c0 33.1 26.9 60 60 60h200c33.1 0 60-26.9 60-60 0-28-19.2-51.5-45-58.1-.3-5.5-.5-11.1-.5-16.9z"/>
    <path fill="none" stroke="#0f1419" stroke-width="24" stroke-linecap="round" stroke-linejoin="round" d="M155 230l45 45 95-95"/>
  </g>
</svg>
